<svg id="Capa_1" data-name="Capa 1" xmlns="http://www.w3.org/2000/svg" viewBox="0 0 1200 200"><defs><style>.cls-1{fill:#29abe2;}.cls-2{fill:blue;}.cls-3{fill:#2e3192;}.cls-4{fill:#662d91;}.cls-5{fill:#00a99d;}</style></defs><title>grafic</title><path class="cls-1" d="M85.89,93.41a570,570,0,0,1,126.8-23.17c1.91-.13,1.93-3.13,0-3A574.2,574.2,0,0,0,85.09,90.51c-1.84.56-1.06,3.46.8,2.9Z"/><path class="cls-1" d="M245.88,69.3a274,274,0,0,0,105.82-.49A269.3,269.3,0,0,0,403,53c8.41-3.55,16.95-7.78,26.17-8.65,10.18-1,19.77,2.88,28.5,7.75a248.12,248.12,0,0,1,45.77,33.15c5.92,5.43,15.6,17.83,5,23.84-3.6,2-8.18,2.67-12.17,3.53q-7.33,1.61-14.75,2.78c-37.44,6-78.41,4.85-114.73-6.72C351.54,103.81,333,91.14,338,72.47c.57-2.15,1.17-4.43,3.36-5.15,1.81-.59,4.87-.09,6.71-.09,5.1,0,10.2.25,15.28.65a293.68,293.68,0,0,1,30,4.05c19.29,3.51,38.31,8.35,57.47,12.48Q479.16,90.53,508,94.52A759.94,759.94,0,0,0,623,101.87c35.49-.5,71.56-4.27,105-17C788.77,61.81,831.56,10.3,867.76-41.52q6.88-9.87,13.6-19.86l-2.05.53c30.41,13.82,64.8,19.21,97.91,14.06,13.95-2.17,28.89-7,38-18.46,7.89-9.87,10.82-23.65,4.61-35.07a1.52,1.52,0,0,0-2.59,0c-20.59,28.68-20.49,69.57.25,98.14l1.7-2.2c-21.7-7.49-47.48.18-61.13,18.78-14.3,19.49-12.59,47.71,2.63,66.1l1.46-2.5A393.22,393.22,0,0,0,783.28,50.91a388.17,388.17,0,0,0-44.13,6.22c-12,2.4-26.21,4.85-34.09,15.24-3.21,4.24-5.25,9.57-4.73,14.94s4.79,7.76,9,10.68a84.89,84.89,0,0,0,36.32,14.13c20.21,2.85,48.91-1.71,57.48-23.44,4.14-10.49-.26-20.86-7.26-28.91C787.38,50,776.41,42,765.24,35.55,741.83,22,715.18,14.94,688.58,11.14a414,414,0,0,0-91.94-2.57,421.37,421.37,0,0,0-92,17.74C483.85,32.83,460.73,43,449.1,62.54a48,48,0,0,0-5.65,14.61c-.34,1.59,1.91,2.74,2.74,1.16,4.76-9,3.66-19.58-1.29-28.35C439.53,40.44,430,34.13,420.28,29.6,401.47,20.79,380.75,15.81,360.11,14A208.11,208.11,0,0,0,240.5,39.83a190.57,190.57,0,0,0-48.27,38.43c-3.3,3.67-5,4.23-3,8.86a40.13,40.13,0,0,0,8.13,12.09,52.89,52.89,0,0,0,25.91,14.2c11.84,2.78,24.32,1.63,36-1.14A163.5,163.5,0,0,0,279,106.13c4.22-1.59,3.8-5.91,3.71-10.09-.48-22-19.67-37.55-39.07-43.74-12.6-4-25.94-5.25-39-6.52-15.75-1.52-31.69-2.65-47.45-.66-23.63,3-47.42,14-59.18,35.72a1.54,1.54,0,0,0,.24,1.82c39.9,43.84,98.88,63.63,157,65.4,32.07,1,62.85-4.3,93.94-11.59,19.22-4.51,38.28-7.89,58.1-7.05s39.47,4.09,59.24,5.62a638.52,638.52,0,0,0,116.82-1.69q28.56-3,56.78-8.6c19.38-3.84,38.73-8.61,58.29-3,16.4,4.68,31,13.95,47.19,19.24,16.66,5.44,34.33,5.79,51.59,3.66,18.16-2.25,35.89-6.94,53.7-11,15.88-3.6,31.89-5.69,47.93-8.34,13-2.15,26.45-5,37.88-11.94a48.55,48.55,0,0,0,13.15-11.45c4.22-5.36,7-11.68,10.67-17.39S970,71.61,977.74,75c4.65,2.06,7.46,6.85,10.3,10.85q4.05,5.7,8,11.49,16,23.53,30,48.35,6.87,12.18,13.23,24.66l1.29-2.26q-158.29-16.59-316.31-35.82-79-9.63-157.92-19.91-39.21-5.12-78.41-10.39c-23.33-3.12-46.73-6.06-70.26-7-25.51-1-51.36.29-76.15,6.75-11.39,3-23,6.82-33.39,12.51-8.11,4.46-15.77,11.19-16,21.07a1.54,1.54,0,0,0,1.5,1.5c9.67,1,20.3.4,28.4-5.6,6.23-4.61,10.64-12.38,9.57-20.28-1.19-8.76-8.56-14.66-15.93-18.51-9.63-5-20.4-8.36-30.92-10.93a173.79,173.79,0,0,0-67.72-3c-20.28,3.13-41.21,9.81-56.56,24-15.52,14.36-23.91,37.5-15.63,57.8.43,1.05,2.14,1.66,2.75.36a79.79,79.79,0,0,0-4.33-74.5c-5.62-9.15-15.82-22.57-28.2-20.49-8,1.36-14.21,12.27-7.6,18.65,1.39,1.34,3.52-.78,2.12-2.12-4-3.82-1.14-10,3-12.48,5.86-3.45,13,.81,17.43,4.73,7.71,6.87,13.38,16.53,16.94,26.13a76.55,76.55,0,0,1-2,58.56l2.74.36c-6.9-16.91-1.74-36.31,9.95-49.83C169.54,95.93,187,88.28,204.35,84.07a170.26,170.26,0,0,1,88.1,2.66c8.66,2.6,17.85,5.57,25.49,10.51,9.49,6.12,14.31,16.7,7.06,26.75s-20.27,11-31.43,9.84l1.5,1.5c.29-11.58,12.23-17.76,21.51-21.84A175.17,175.17,0,0,1,349,103c22.5-5,45.72-6,68.68-5s45.77,3.74,68.52,6.77q37.61,5,75.22,10,152.89,20,306.1,37.45,86.49,9.87,173.06,18.93c1.21.13,1.76-1.35,1.3-2.26q-13-25.34-28-49.54-7.38-11.89-15.25-23.46c-4.68-6.88-9.18-15.2-15.42-20.81-9.54-8.58-19.14-1.35-24.9,7.4-3.81,5.8-6.57,12.33-10.91,17.78A48,48,0,0,1,931.22,113c-12.85,6.46-27.5,8.69-41.58,10.74-17,2.48-33.67,5.65-50.39,9.56-18.54,4.34-37.27,8.86-56.38,9.52-18.93.66-36-3.7-53.18-11.46-14.82-6.72-29.62-14.25-46.17-15.23-19-1.12-38,4.78-56.53,8.07a637.17,637.17,0,0,1-118.92,9.72q-29-.34-57.9-3.33c-19.75-2.05-39.55-5.19-59.47-4.09-18.76,1-37,5.93-55.21,10.15a326.67,326.67,0,0,1-48,7.65C227.46,149,162.79,136,116.12,95.91a177.37,177.37,0,0,1-15.76-15.38l.23,1.82c22.82-42,79.59-37.11,119.6-31.88,21.25,2.78,44.19,9.34,55.09,29.58a36,36,0,0,1,4.39,14.54c.12,1.74.53,6-.42,7.59-1.35,2.2-5.82,2.8-8.1,3.55-11.64,3.88-23.83,6.71-36.18,6.21a54.46,54.46,0,0,1-29.21-9.5,41.37,41.37,0,0,1-10.54-10.57,24.36,24.36,0,0,1-3.3-6.1c-.86-2.82,1.52-4.4,3.4-6.45a187.07,187.07,0,0,1,42.36-34.38A205.53,205.53,0,0,1,342.94,16.17,189.34,189.34,0,0,1,403.07,26c11.08,3.75,22.7,8.29,31.55,16.18,9.56,8.54,15.36,22.5,9,34.64L446.34,78c4.83-22.65,25.68-35.95,45.8-44C516.82,24,543.8,18.38,570,14.57a424.08,424.08,0,0,1,85.6-3.69c25.53,1.49,51.2,5,75.57,13,22.95,7.5,46.52,19.52,62.56,38.05,8.8,10.17,11.07,23.11,1.54,33.64-7.42,8.19-18.61,12.79-29.44,14a81.08,81.08,0,0,1-37.09-4.75,82.18,82.18,0,0,1-16.6-8.47c-2.43-1.61-5.39-3.31-7.31-5.49-2.55-2.9-1.78-7.46-.59-10.84,5-14.14,22-17.16,34.79-19.76a376.35,376.35,0,0,1,40.63-6A391.19,391.19,0,0,1,961.37,80.89c1.54.62,2.3-1.5,1.46-2.51C948.46,61,947.15,34.2,960.67,15.92,973.62-1.6,998-8.53,1018.41-1.49a1.51,1.51,0,0,0,1.69-2.2c-20.18-27.8-20.28-67.22-.25-95.12h-2.59c6.67,12.27,1.37,27.43-8.67,36.17-10.94,9.51-26.05,12.58-40.08,13.94a172.54,172.54,0,0,1-87.68-14.74,1.56,1.56,0,0,0-2.06.54c-38.44,57-82.21,117.18-148.26,143.62-36,14.43-75.26,18.06-113.75,18.21A768.68,768.68,0,0,1,492.48,89.2c-40.11-6.42-79.27-18.67-119.63-23.39A213.56,213.56,0,0,0,342.3,64.3c-3.78.1-4.23.3-5.9,3.82a22.34,22.34,0,0,0-2,8.65c-.61,15.18,11,26.39,24,32,16.77,7.21,36.16,9.87,54.2,11.64a271.81,271.81,0,0,0,59.94-.76,272.83,272.83,0,0,0,28.11-5c6.05-1.41,13.32-3.35,15.11-10.22,1.6-6.19-2.22-12.47-6-17-5.56-6.63-13-12-19.86-17.3A289.84,289.84,0,0,0,466,53.58c-7.58-4.71-15.58-9.31-24.36-11.34C423.47,38,407,48.61,390.5,54.68A269.72,269.72,0,0,1,276.44,70.45a268.81,268.81,0,0,1-29.77-4c-1.88-.36-2.69,2.53-.79,2.89Z"/><path class="cls-2" d="M634.82,31.52c-60.27,20.77-106.81,80-173.9,81-59.74.92-92.2-56.13-133.69-89.4-10.15-8.14-22.29-16.8-36-15.52C277.3,8.93,265.1,19.67,255.45,29a138.64,138.64,0,0,0-26.57,35.5c-6.26,12-11.74,26.77-7,40.26,3.51,10,14,18.84,25.09,17.48,10.55-1.29,16.84-11.36,17.28-21.33,1.22-27.11-34.39-41.72-56.1-45.61-28.74-5.15-58.46.82-85.86,9.68-13.21,4.27-27.16,8.69-39.16,15.8C74.23,86,64.36,94.11,63.47,105.21c-2.09,26.11,34.19,27.51,51.35,22.61,23.26-6.65,42.81-25,51.61-47.4,4-10.27,7.5-25,3.33-35.76-4.51-11.56-21.19-11.17-31.32-9.43A54.43,54.43,0,0,0,93,89.25c.26,27.46,20.07,46.35,44.22,55.83,12.88,5.06,26.49,7.87,40.06,10.34q25.38,4.65,51,7.52a758.26,758.26,0,0,0,209.37-5.6c52.28-8.73,111.05-21.67,149.58-61a116.17,116.17,0,0,0,21.35-30.08l-2.74-1.15c-3.07,13.48,2.4,26.94,12.06,36.44,11,10.79,26.34,14.94,41.34,15.59,34.12,1.48,70.08-9.37,100.26-24.62,11.77-5.94,35.45-16.33,30.81-33.34a1.51,1.51,0,0,0-3,.4c.22,14.81,8.78,27.4,20.74,35.62,14.23,9.77,31.33,12.09,48.18,9.79,19.95-2.72,39.66-10.53,57.91-18.82,13.42-6.09,28.15-15.36,31.93-30.65,3.17-12.83-1.28-28.56-14.86-33a1.52,1.52,0,0,0-1.85,1.05,127.49,127.49,0,0,0-2.76,48.59c1.85,13.44,5.28,28.73,13.9,39.61,6.53,8.25,17.44,12.38,26.79,6S980.46,99,982.75,88.63l-2.51.66c7.58,9.17,20.08,21.79,33.24,16,12-5.23,14.66-21,11-32.21C1015.63,46,981.93,42.65,962.54,60.7,942.93,79,942,118.36,963.85,135.48c11.14,8.7,26.62,7.16,38.13,0,11-6.86,18.44-18.48,21.57-30.9,7-28-9.33-55.37-31.55-71.39-5.37-3.87-11.68-7.76-18.6-6.64S961.22,33.15,957,38.3a116.39,116.39,0,0,0-19.4,34.16,132.64,132.64,0,0,0-2.87,80.69,121,121,0,0,0,17.06,36.51c1.72,2.46,3.53,4.86,5.43,7.17.67.82,3.27,2.93,3.28,3.83,0,2.66-5.07,2.9-6.79,2.88-9.24-.09-19-2.42-28.11-3.78a1531.37,1531.37,0,0,1-221.67-50C668.77,139,633.6,127.48,599.57,113.64c-25.34-10.31-56.35-27-59-57.63-1-11.87-1.48-25.43-16.23-27.22-6.78-.82-13.61,1.12-20,3.19a171.81,171.81,0,0,0-20.65,8.24,174.51,174.51,0,0,0-38.87,25.36,170.91,170.91,0,0,0-16.7,16.48q-3.75,4.25-7.2,8.75c-1.7,2.2-3.54,3.78-3.33,6.65.73,9.82,13.08,14.94,21.54,11.88,11-4,13.24-18.38,9.56-28.15C443.8,68.13,429.89,61.29,417.55,57c-16.08-5.67-33.22-7.89-50.23-7.57-35.87.65-70.77,11.68-104.18,23.88C233.52,84.08,204,95.85,176.51,111.37c-26.64,15-51.51,33.84-70.47,58-4.91,6.26-9.13,13.22-15.39,18.27-3.47,2.8-8,5.33-12.64,4.05-5.07-1.42-7.51-6.43-8.88-11.08-5-17-5.69-35.86-4.28-53.38A169.36,169.36,0,0,1,78.18,73.88a1.52,1.52,0,0,0-1.3-2.25A150.12,150.12,0,0,0-6.32,92.44a1.51,1.51,0,0,0,1.15,2.74C48.08,84.91,79.26,33.43,127.44,12.69c1.77-.76.24-3.35-1.52-2.59C78,30.73,46.94,82.08-6,92.29L-4.81,95a147.19,147.19,0,0,1,81.69-20.4l-1.3-2.26A173.85,173.85,0,0,0,61.5,132.76a169.82,169.82,0,0,0,1.28,30.66c1.11,8.34,1.91,18.9,7.08,25.91,11.63,15.75,28.08-4,35.12-13.61,11.69-15.94,26.1-29.77,41.89-41.61,31.25-23.42,67.49-39.27,103.81-53,40.23-15.25,82.94-30.4,126.6-28.59a137.67,137.67,0,0,1,32.52,5.13c10.15,2.92,20.85,6.84,28.73,14.13,7.42,6.87,11.72,18,7,27.69a13.69,13.69,0,0,1-22.13,3.62c-1.31-1.34-2.66-3.3-2.71-5.27-.07-2.77,2.69-5.31,4.37-7.41,3-3.8,6.23-7.46,9.58-11a171,171,0,0,1,22.8-20A167.27,167.27,0,0,1,509,33.67c9.7-2.82,23.18-4.24,26.93,7.84,2.51,8.1,1.08,16.88,3.6,25.08,4.51,14.72,16,25.9,28.46,34.24,14.94,10,31.81,16.28,48.53,22.5q32.34,12,65.21,22.59a1532.91,1532.91,0,0,0,266.51,60c5.61.75,13.33,1.65,15.67-4.9a1.5,1.5,0,0,0-.39-1.46C940.36,174.18,930.2,139,933.33,105a122.5,122.5,0,0,1,15-48.91c4.19-7.43,9.18-14.85,15.36-20.77,4.46-4.28,9.86-7.14,16.13-5.41,5.42,1.5,10.37,5.46,14.67,9,14.4,11.72,25.9,28.69,27.53,47.56,1.51,17.42-6.05,36.37-21,46.07-9.24,6-21.57,8.39-31.66,3.07-8.62-4.55-13.9-13.92-16.48-23-5.43-19.1-.47-42.17,16.73-53.68,18.17-12.15,43.92-7.46,51.72,14.41,3.44,9.62,1.91,23.42-8,28.78-12,6.49-24.13-6.57-31-14.9a1.51,1.51,0,0,0-2.51.66c-2.05,9.27-5.17,20.27-12.85,26.53-10.92,8.91-22.52-.3-28-10.42-12.6-23.44-13-54.31-6.7-79.56l-1.84,1.05c12.4,4,15.76,19.14,12.44,30.49-4.12,14.11-18.39,22.37-31,28-28.5,12.76-65.77,28.1-96,12.48C802,89.14,790.65,76,790.41,59.58l-2.95.4c3,10.84-8.79,18.37-16.72,23a231.48,231.48,0,0,1-24.16,12.32,231.64,231.64,0,0,1-55.87,16.46c-18.86,3.07-39.78,4.77-57.63-3.44-15.84-7.29-28.39-24.49-24.3-42.45.36-1.58-2-2.75-2.74-1.15-21.66,44-68.94,65.84-114,78.08-58.24,15.81-119.94,21.94-180.17,21.85a753.84,753.84,0,0,1-93.29-5.91q-24-3-47.73-7.6c-11.79-2.31-23.57-5.14-34.69-9.75s-21.5-11.09-29-20.5a52.19,52.19,0,0,1-10.54-40c4-27.35,31-47.36,58.46-42.91a19.54,19.54,0,0,1,8,2.71c4.24,2.92,5,8,5.18,12.77a62.62,62.62,0,0,1-2.06,18,74.76,74.76,0,0,1-17.46,31.6c-15.66,17.06-41.68,29.49-65,22.61C72,122.24,62.14,111.39,68.34,98.86c5.45-11,18.27-17.32,29.11-21.7C123,66.87,150,58.26,177.61,56.65c25.61-1.5,55.59,3.69,74.27,22.87,9,9.23,14.07,25.37,3.36,35.58-11.65,11.12-28.5-1.31-31.34-14.22-3.2-14.52,4-29.41,11.29-41.57a135.88,135.88,0,0,1,26.75-32.25c11.47-10.13,25.27-20.15,41.3-15,12.68,4.09,23.5,14.08,33.14,22.91,33.22,30.42,62.77,73.55,110.87,79.8,57.48,7.47,104.42-35.48,150.41-62.44a211.65,211.65,0,0,1,38-17.93c1.82-.63,1-3.53-.8-2.9Z"/><rect class="cls-3" x="184.5" y="23.5" width="88" height="93"/><rect class="cls-4" x="746" y="12" width="53" height="49"/><path class="cls-5" d="M438.58,14.36c-29.43,20.21-27,64.06-3,87.34,30.9,30,77.52,26.32,114.22,10.42,16.86-7.3,44.42-18.83,44.61-40.83a1.54,1.54,0,0,0-1.5-1.5c-13.84-.92-22,15.07-19,27.19,4.14,16.48,22.88,24.53,37.42,29.29,34.26,11.21,72.44,9.19,105.8-4.17A151.25,151.25,0,0,0,767,89.73l-2.51-1.46c-10.93,30,30.77,51,55.17,49.16,11.47-.88,24.34-7.57,23.72-20.66-.45-9.43-8.15-20.39-18.65-16.7a1.57,1.57,0,0,0-1.05,1.85c3.47,25.25,27.54,44.36,52.53,45.15,25.7.81,45.55-19.79,49.54-44.23,2.2-13.48-.34-27.44-8.42-38.58a1.55,1.55,0,0,0-1.7-.69c-19.82,6-25.7,30.2-19.19,48,8.72,23.88,37.13,30.28,59.74,26.2,12-2.17,26.29-6.95,34.15-16.85,8.47-10.66,2.48-22.73-5-32.06a67.33,67.33,0,0,0-32.42-22c-3.41-1.06-12.61-4.35-16-2.29-2,1.21-3.69,5.7-4.69,7.74a55.86,55.86,0,0,0-3.73,9.94A54.83,54.83,0,0,0,959.59,147c11.37,4.93,25.75,6.78,37.38,1.64,12.38-5.46,15.09-18.36,13.88-30.69-2-20.53-8.48-51.52-30.37-59.87-7.2-2.74-15.42-1-21.38-6.66-4.92-4.65-7.85-10.91-13.22-15.17-9.94-7.88-23.35-8.74-35.46-7.17-14.25,1.84-28.14,6.83-41.42,12.12a296,296,0,0,0-109.17,75.42c-5.08,5.57-9.91,11.34-14.55,17.27l1.81-.23c-27.45-19.3-53-42.43-84-56-14.46-6.29-30-10.57-45.8-11-13.74-.41-30.46,1.56-41.59,10.42C566.71,84.14,563.24,99,574,106.27a1.53,1.53,0,0,0,1.82-.23c14.53-14.76,6.62-38.43-7.67-50.3-21.56-17.91-52.85-7.55-75,3.51-9.37,4.68-23,11.46-24.41,23.35-1.29,11.07,9.28,17.34,18.53,19.9,11,3.06,25.61,4.1,33.05-6.43s.22-19.87-9.81-24.62C486.18,60,457.09,59.58,432.33,69.83c-10,4.15-23.09,10.52-27.26,21.39-3.65,9.5,1.45,18.38,8.93,24.19a60.26,60.26,0,0,0,31.06,12c11.05.8,18.67-6.22,15.66-17.64-5.82-22-29.81-34.61-51-36.53-26.92-2.44-52,11.78-71.73,28.77-22.08,19-41.37,42.58-54.39,68.7a179.43,179.43,0,0,0-8.12,19,1.51,1.51,0,0,0,2.2,1.69c20.11-13.59,38-38.55,34.71-64C308.74,99,279.86,88.84,255,86c-32.3-3.74-67-2.77-97.35,9.88-9.17,3.82-27,11.29-21.62,24.49,5.13,12.62,19.87,1.43,24.92-5.26,16.59-22,5-51-16.61-64.28-11.77-7.26-26.82-10.87-40.4-7.2C92,46.81,82.5,56.5,80.88,69c-1.57,12.12,6.05,22.29,17.47,25.8,12.89,4,25.87-.72,36.23-8.59a121.31,121.31,0,0,0,16.1-15.3c4.56-5,9.2-10.72,10.65-17.52,2.79-13.12-8.48-22-19.15-26.78A143.14,143.14,0,0,0,92.37,14.86c-12-.69-24.72,1.67-28,15-6.3,25.88,21.27,46.49,43.85,49.68a56.45,56.45,0,0,0,19.14-.66l-1.85-1c7.08,26.24,23.27,55.69,54.75,52.58,9-.89,17.65-3.83,26.17-6.76,9.16-3.14,18.32-6.31,27.38-9.72,17.09-6.45,33.87-13.85,49.36-23.58a212.62,212.62,0,0,0,45.86-38.95l-2.56-1.06c.62,21.73,12.37,41.75,29.92,54.3a66.77,66.77,0,0,0,30.13,12.08C401,118.56,416,113.74,430,119c6.32,2.35,11.91,6.26,17.68,9.67a86.27,86.27,0,0,0,19.3,8.55c12.39,3.66,25.48,4.44,38.32,3.76,13.85-.73,27.56-3.12,41.14-5.79,11.86-2.34,24.18-4.48,35-10.18,10.08-5.32,17.78-13.87,19.4-25.42,1.34-9.63-1.8-19.69-10.73-24.51a1.51,1.51,0,0,0-2.2.9c-1.79,10.28,4.79,19.75,14.17,23.68,7.45,3.12,20.06,2.63,21.18-7.53A12.75,12.75,0,0,0,605.85,78.7c-12,4.77-13.14,19.26-6.54,28.9a28.32,28.32,0,0,0,29,11.55c9.66-2.1,16.9-10.28,15.16-20.43-1.41-8.26-8.64-16.88-17.79-15.25-10.39,1.85-14.81,14.38-12.35,23.64,3.57,13.47,18,21.63,29.61,27.2a122.73,122.73,0,0,0,45.26,11.75c10.6.65,25.83.35,30.59-11.36s-1.92-27.45-7.91-37.49C697.62,75,673,60.81,647,62.32s-51.61,17.46-61.07,42.23c-4.79,12.54-4.46,26.74,3.51,37.91,7.59,10.62,19.69,16.95,31.52,21.7a225.73,225.73,0,0,0,99,15.44,236,236,0,0,0,24-2.93,1.54,1.54,0,0,0,1-1.85c-4.74-28.75-44.59-31.41-67.09-33.75a520,520,0,0,0-120.5,1.65l.4,2.95c61.4-11.95,128.9-27.14,171.58-76.78l-1.82.24c25.22,19,53.13,40,86,41.22,26.65,1,54.14-11.47,63-38.11,5.84-17.52,3.39-36.61.9-54.5a1.51,1.51,0,0,0-2.74-.36c-13.15,27.56.17,60.82,23.66,78.21,24.55,18.16,61.61,21,82.93-3.66,10.26-11.85,15.21-27.85,11.12-43.22-.35-1.33-2.67-1.52-2.89,0-2.31,16.32-4.7,34.12,3.62,49.22,6.24,11.3,18,19.16,31.2,16.79s24-13.43,28.58-25.64c6.38-16.93,3-35.76-.18-53-.31-1.72-2.9-1.23-2.94.4q-.94,31.11-3.42,62.15c-.83,10.34-1.76,20.67-2.89,31-.91,8.37-2.11,18-7.89,24.59-6.28,7.18-16.07,7.69-24.94,7.24-9.91-.5-19.83-1.42-29.73-2.17-20.49-1.54-41-3.15-61.45-5-41.11-3.65-82.16-8.17-122.91-14.79-20.21-3.29-40.23-7.42-60.32-11.37-18.87-3.71-38.26-6.78-57.51-4.62-30.86,3.45-64.34,25.11-64.94,59.17l2.56-1.06c-37.73-37.23-105.21-35.61-141,3.49l2.56,1.06a61.21,61.21,0,0,0-19.53-43.92,46.59,46.59,0,0,0-8.45-6.48c-2.67-1.49-3.81-.65-6.24,1.38-4.55,3.79-6.8,9.7-7,15.51-.5,14.66,11.94,24.38,25.71,25.47,17.62,1.39,32.37-10.24,43.48-22.64,11.33-12.67,20.9-27.9,22-45.27,1-15.77-4.79-31.34-14.12-43.89-22.51-30.26-60.92-38.31-96.69-33.9C377.49,37.34,338.7,54,305.87,76.28c-13.14,8.93-28.77,21.42-30.53,38.47-.3,2.8-.55,8.82,1.37,11.23,1.76,2.21,6,2.52,8.7,3.22A131.71,131.71,0,0,0,313,133.56c16.78.7,34.94-2.83,47.82-14.3,10.11-9,16.88-22.42,17.27-36a35.37,35.37,0,0,0-19.78-33.07c-13.87-7-30.53-6.29-45.43-3.83-76,12.52-140.39,60.78-198,109.05q-11.11,9.31-22.11,18.79l2.5.66L77.41,102.76l-8.73-35c-2.13-8.53-8.86-24.83.37-31.37l-2.26-1.29,4.73,51c.92,10,1.18,22.28,8.66,29.92,6.77,6.92,17.07,5.78,23.9-.42,9-8.12,8.54-21.16,4.61-31.68C93.64,43.68,34.22,23.4,5.52,61.17-7.76,78.64-11.1,104.46,2.68,122.61a1.53,1.53,0,0,0,2.05.54A186.69,186.69,0,0,0,47.66,79.09l-2.74-.36,10.3,74.53c.27,1.91,3.16,1.1,2.9-.79L47.81,77.93c-.2-1.4-2.1-1.28-2.74-.36a182.32,182.32,0,0,1-41.85,43l2,.54C-5.56,106.84-5.36,87.61,2.38,71.94c8.34-16.91,24.54-27.76,43.53-28,19.33-.27,38.28,9.55,50.38,24.41,7.26,8.9,13.44,21.08,11.89,32.84-1.49,11.28-15.06,22.77-25.42,13.11-8.57-8-7.82-23.73-8.81-34.35L69.79,35.07c-.09-1-1.24-2-2.25-1.3-6.69,4.74-6.62,13-5.23,20.4C64.8,67.4,68.77,80.49,72,93.55l20.44,82.07a1.52,1.52,0,0,0,2.51.66C144.84,133.53,196.68,90,258.26,65.15A274.9,274.9,0,0,1,304.51,51c14.72-3.08,30.56-5.25,45.27-.94,14.22,4.18,24.77,15.53,25.34,30.66.49,13-5.64,26.12-14.92,35.11-11.9,11.52-29.32,15.24-45.41,14.84a123.36,123.36,0,0,1-26-3.66c-3.51-.85-8.92-1.11-10.12-4.89-1.29-4.08-.36-9,1-13,5.72-16.68,22.89-27.49,37.07-36.32a275.58,275.58,0,0,1,47.95-23.73c32.12-12.14,68.79-20.26,102.66-10.69,29.26,8.26,55.83,33.51,57.56,65.25.92,17-6.79,32.32-17.27,45.21-10.27,12.65-24.16,26-41.47,26.44-15.08.37-30.64-11.14-25.7-27.64.89-3,3-7.44,6-8.81s6.88,3,9.21,5.05a58.69,58.69,0,0,1,13.83,18.63,57.33,57.33,0,0,1,5.41,23.71,1.52,1.52,0,0,0,2.56,1.06c34.73-37.89,100.19-39.61,136.8-3.49a1.52,1.52,0,0,0,2.56-1.06c.64-36.3,39-55.76,70.92-56.82,20.5-.67,40.73,3.69,60.69,7.8s40.27,7.73,60.54,10.8c39.73,6,79.71,10.2,119.74,13.64,20.47,1.76,41,3.33,61.46,4.85,14.23,1.06,34.28,5.8,46-5.06,5.82-5.39,8.14-13.41,9.37-21,1.61-9.91,2.27-20,3.15-30q3.06-35.14,4.11-70.42l-3,.4c2.76,15.16,5.64,31.1,1.75,46.34-3.19,12.51-12.46,24.3-25.24,27.94C1013,115,1001,106.81,995,95.08c-7.1-14.06-4.74-30.61-2.62-45.57h-2.89c7.46,28.07-16.33,54.82-43.73,57.3-28.7,2.6-56.71-15.84-68-41.82-6.38-14.64-7.43-31.49-.46-46.1l-2.74-.36c4,28.81,5.82,63-22.82,79.9C827,113,796.87,108,772.48,95.5c-15.54-8-29.56-18.49-43.46-29a1.47,1.47,0,0,0-1.81.23C684.87,116,617.87,130.92,557,142.77c-1.64.32-1.29,3.17.4,2.95a520.28,520.28,0,0,1,110.31-2.6c15.85,1.33,32.45,2.43,47.65,7.42,12.25,4,24.48,11.38,26.74,25.08l1.05-1.85a225.46,225.46,0,0,1-75.82.24,225.25,225.25,0,0,1-35.88-9.15c-10.29-3.56-20.72-7.68-29.54-14.21-9.42-7-16-16.93-16.16-28.94-.15-11.61,4.93-23,12.23-31.84,13.3-16.13,34.36-25.29,55.2-24.63,21.16.67,40.79,12.35,52.67,29.68,5.82,8.48,10.24,18.67,11.19,29,.61,6.64-1.1,12.82-7.16,16.28-4.78,2.73-10.75,3.11-16.13,3.07-23.43-.17-51.12-7.76-68.81-23.84-8-7.28-13.7-20.47-4.87-29.61,8.57-8.88,19.58.71,20.61,10.45,1.34,12.63-12.65,18.08-23.12,16-12.28-2.48-25.78-17.68-16.58-30,4.28-5.73,13.38-8.19,17.73-1.17,4.09,6.61.1,12.86-7.26,13.31-11.3.69-22.61-10.19-20.62-21.65l-2.2.89c9.39,5.07,11.18,16.61,8.25,26.12-3.42,11.12-13.47,17.81-23.89,21.72s-21.65,5.74-32.55,7.8c-12.75,2.41-25.64,4.42-38.63,4.82-12,.38-24.14-.65-35.63-4.31s-20.88-11.24-31.84-16.26c-11.66-5.34-23.66-3.76-36.07-3.38a63.5,63.5,0,0,1-31.58-6.79c-21.24-10.95-36.44-32.92-37.13-57A1.52,1.52,0,0,0,327,49.26c-22.9,25.77-51.27,44.53-83.09,57.52C228.13,113.2,212,119.11,195.68,124c-16.11,4.88-32.64,5.5-45.76-6.43C138.43,107.15,132.4,91.68,128.44,77A1.53,1.53,0,0,0,126.6,76c-22.3,4.52-50.79-6.65-58.26-29.68C65.13,36.37,66.13,23.05,77.47,19c5.88-2.09,12.67-1.4,18.77-.89a145.2,145.2,0,0,1,22.51,3.72c11.68,2.89,25.94,6.64,34.65,15.5,11.55,11.76,1.23,25-7.69,34.47-8.32,8.8-18,17.82-30.19,20.6C104.73,94.88,91,91.78,85.68,81.15c-5.75-11.49,1.19-25.8,11.74-31.71,11.76-6.59,26.75-5,38.66.36C157,59.16,172.14,82,163.22,104.92a33.62,33.62,0,0,1-9.14,13.2c-2.66,2.31-6.3,4.85-10,5-5.14.21-6.71-6.15-5.56-10,1.94-6.42,9.8-9.8,15.33-12.39a129.38,129.38,0,0,1,19.82-7.31c25.06-7.07,51.72-7.38,77.49-4.89,23.83,2.3,53.56,10.35,58.09,38,4,24.56-13.71,49.22-33.08,62.31l2.2,1.7c8.19-22.51,21-42.95,36.64-61.05C329.8,112.35,346.84,96,367.12,85.61c18.56-9.5,39.8-12.85,59.69-5.48,9.63,3.57,18.6,9.59,24.71,17.94a37.4,37.4,0,0,1,6.3,12.52c2.14,8.35-2.38,13.88-10.69,14-15.14.12-49.15-14.07-38.39-34.19,5.1-9.55,17.85-15.22,27.49-18.86a95.24,95.24,0,0,1,33.07-6,93.58,93.58,0,0,1,33.08,5.81c5,1.86,11,4.12,14.82,8,5.44,5.52,3.17,13.61-2.28,18.17-9.15,7.67-26.6,4.2-36-1.64-5.21-3.24-8.74-8.77-6.84-15C473.8,75.18,479,71,483.68,67.86a127,127,0,0,1,36.74-16.14c12.69-3.33,27.65-4.29,39.59,2.13,16.62,8.92,28.91,34.55,13.64,50.06l1.81-.23c-8.34-5.7-5.63-17.4.84-23.29,6.29-5.73,15.24-8.14,23.43-9.58,18.32-3.22,37.22.08,54.48,6.49,34.33,12.75,61.83,38.14,91.37,58.9a1.51,1.51,0,0,0,1.82-.23A294.2,294.2,0,0,1,868.24,44.66c20.5-8.3,49.69-20.44,71.17-9.11,9.85,5.19,13.24,17.87,23.54,21.93,4.95,2,10.48,1.33,15.51,3A29.56,29.56,0,0,1,992,70.42c7.06,8.87,10.55,20.29,13,31.19s5.83,24.71.48,35.24C999,149.78,981,150.09,968.74,146.94a53.37,53.37,0,0,1-30.61-21.24,53,53,0,0,1-2.25-53.93c2.28-4.16,3.06-4.73,7.87-3.94a62.76,62.76,0,0,1,9.07,2.2,64.33,64.33,0,0,1,29.86,20.36c4.25,5.2,9.13,12,9,19.07-.13,7.57-6.3,13.18-12.3,16.81-21.38,13-56.94,15.39-74.41-5.5-13.35-16-10.82-47.61,11.41-54.31l-1.69-.69c17.2,23.7,7.92,61.75-18.8,74.36-28.57,13.48-65.17-8.51-69.37-39l-1,1.84c10.25-3.59,16.6,10,14.44,18.41-3.12,12.12-19,14-29.35,12.87-20.47-2.19-52.29-20.29-43.23-45.17.53-1.46-1.5-2.45-2.51-1.46C742.36,109.67,713,123.8,682,128.67a153,153,0,0,1-48.7-.13c-15-2.5-31.41-6.87-43.86-15.87-7.41-5.35-13.95-13.45-13-23.1.85-8.65,7.1-17.4,16.52-16.78l-1.5-1.5c-.17,19-23.44,29.15-38,35.94C534.64,116,514.17,122,493.3,121.53c-33.61-.76-70.06-22-73.21-58.21-1.53-17.65,5.08-36.12,20-46.37,1.59-1.09.09-3.69-1.51-2.59Z"/></svg>